<?xml version="1.0" standalone="no"?>
<!DOCTYPE svg PUBLIC "-//W3C//DTD SVG 20010904//EN"
 "http://www.w3.org/TR/2001/REC-SVG-20010904/DTD/svg10.dtd">
<svg version="1.0" xmlns="http://www.w3.org/2000/svg"
 width="240.000000pt" height="240.000000pt" viewBox="0 0 240.000000 240.000000"
 preserveAspectRatio="xMidYMid meet">
<metadata>
Created by potrace 1.11, written by Peter Selinger 2001-2013
</metadata>
<g transform="translate(0.000000,240.000000) scale(0.100000,-0.100000)"
fill="#000000" stroke="none">
<path d="M1183 2350 c-7 -28 -24 -74 -38 -103 -15 -28 -26 -54 -25 -55 1 -2
-7 -14 -18 -27 -11 -13 -18 -26 -15 -29 4 -3 1 -6 -6 -6 -6 0 -22 -11 -34 -25
-53 -59 -184 -77 -265 -36 -49 25 -99 94 -93 129 5 31 -18 6 -44 -48 -15 -32
-32 -57 -37 -54 -4 3 -8 1 -8 -4 0 -4 -17 -18 -38 -30 -71 -39 -212 -13 -243
44 -7 13 -16 24 -21 24 -4 0 -16 19 -25 43 l-18 42 -5 -29 c-3 -16 -4 -116 -2
-222 l3 -192 948 0 949 -1 1 217 c0 193 -1 215 -14 198 -8 -11 -15 -25 -15
-31 0 -7 -9 -20 -20 -30 -11 -10 -17 -21 -15 -26 3 -4 -15 -20 -41 -35 -43
-25 -92 -33 -146 -22 -20 5 -65 37 -87 62 -9 10 -24 27 -33 38 -10 10 -19 21
-19 26 -4 23 -20 52 -29 52 -6 0 -9 -4 -5 -9 3 -5 1 -12 -5 -16 -6 -4 -8 -10
-5 -15 3 -5 -1 -15 -9 -23 -8 -8 -13 -16 -11 -19 2 -2 -6 -16 -19 -31 -33 -39
-91 -60 -167 -60 -54 -1 -73 4 -112 26 -26 15 -47 31 -47 35 0 6 -17 29 -60
80 -6 6 -8 12 -4 12 3 0 1 7 -6 15 -7 8 -10 15 -7 15 3 0 -3 19 -13 43 -10 23
-22 58 -25 76 -12 70 -36 70 -52 1z"/>
<path d="M243 1656 c-3 -5 -5 -165 -5 -355 1 -280 4 -357 17 -406 20 -74 58
-158 91 -202 l26 -34 27 39 c36 48 68 69 128 82 55 13 87 31 108 63 13 21 12
29 -13 97 -27 75 -27 77 -32 400 l-5 325 -168 0 c-93 0 -171 -4 -174 -9z"/>
<path d="M1824 1661 c-2 -2 -4 -144 -4 -316 0 -247 -3 -323 -15 -370 -44 -168
-183 -315 -372 -390 -74 -30 -108 -36 -214 -40 -104 -4 -200 17 -317 67 l-82
36 -6 -24 c-4 -15 -28 -37 -66 -60 -64 -39 -88 -77 -103 -162 -6 -38 -4 -44
27 -72 50 -47 149 -90 255 -111 151 -30 209 -63 256 -147 l24 -44 7 29 c15 59
55 104 122 134 35 16 74 29 86 29 42 0 171 41 242 76 127 63 221 145 347 302
24 30 103 189 123 247 20 60 21 80 20 436 -1 206 -2 376 -3 379 -1 6 -321 7
-327 1z"/>
<path d="M683 1643 c3 -5 8 -46 11 -93 4 -47 9 -98 11 -115 2 -16 7 -52 10
-80 5 -44 32 -153 38 -156 1 -1 95 -3 210 -5 l207 -4 0 150 c0 174 -8 182 -59
67 -35 -79 -55 -108 -89 -126 -28 -15 -77 5 -111 44 -26 31 -118 168 -176 263
-21 34 -42 62 -47 62 -5 0 -7 -3 -5 -7z"/>
<path d="M1677 1598 c-19 -29 -42 -69 -52 -88 -56 -109 -156 -224 -206 -235
-55 -12 -91 25 -138 142 -44 107 -51 96 -51 -76 l0 -151 113 -1 c61 0 154 -1
205 -1 50 -1 94 1 97 4 5 5 28 109 39 173 3 17 12 75 21 130 9 55 18 112 21
128 8 42 -11 32 -49 -25z"/>
<path d="M728 1098 c-7 -14 -13 -76 -15 -158 l-3 -135 32 40 c53 64 136 138
181 163 92 49 158 12 196 -112 12 -38 19 -71 16 -74 -2 -2 -34 -5 -70 -5 l-66
0 48 -28 c56 -33 113 -86 113 -105 0 -8 3 -14 8 -14 4 0 6 101 4 225 l-3 225
-214 0 c-212 0 -214 0 -227 -22z"/>
<path d="M1230 870 c1 -150 5 -250 11 -250 11 0 10 -7 15 95 7 126 30 190 93
258 63 68 146 90 212 56 21 -10 43 -28 50 -40 28 -53 11 -124 -38 -150 -34
-19 -28 -24 25 -22 26 1 59 2 74 2 17 1 26 6 23 14 -2 6 -6 60 -9 118 -6 113
-15 153 -40 162 -8 3 -106 6 -216 7 l-200 0 0 -250z"/>
</g>
</svg>
